<svg xmlns="http://www.w3.org/2000/svg" xmlns:xlink="http://www.w3.org/1999/xlink" viewBox="0 0 48 48"><defs><linearGradient id="a" x1="-.278" x2="55.074" y1="24" y2="24" gradientUnits="userSpaceOnUse"><stop offset="0" stop-color="#e93e3a"/><stop offset=".35" stop-color="#ed683c"/><stop offset=".716" stop-color="#f3903f"/><stop offset="1" stop-color="#fdc70c"/></linearGradient><linearGradient id="b" x1="-.278" x2="55.074" y1="26.232" y2="26.232" xlink:href="#a"/></defs><path fill="url(#a)" d="M24,0A24,24,0,1,0,48,24,24.028,24.028,0,0,0,24,0Zm0,46A22,22,0,1,1,46,24,22.025,22.025,0,0,1,24,46Z"/><path fill="url(#a)" d="M32.692,19.429l.707.707,1.414-1.414-2.828-2.828-1.414,1.414.707.707-.408.408a10.989,10.989,0,0,0-3.87-2V15h1a1,1,0,0,0,1-1V11a1,1,0,0,0-1-1H20a1,1,0,0,0-1,1v3a1,1,0,0,0,1,1h1v1.426a10.956,10.956,0,0,0-3.633,1.82l-.938-.938.707-.707-1.414-1.414-2.828,2.828,1.414,1.414.707-.707.874.874a11,11,0,1,0,16.419.217ZM21,12h6v1H21Zm2,4V15h2v1ZM18.389,34.025l.661-.661L17.636,31.95l-.661.661A8.956,8.956,0,0,1,15.059,28H16V26h-.941a8.956,8.956,0,0,1,1.916-4.611l.661.661,1.414-1.414-.661-.661A8.956,8.956,0,0,1,23,18.059V19h2v-.941a8.956,8.956,0,0,1,4.611,1.916l-.661.661,1.414,1.414.661-.661A8.956,8.956,0,0,1,32.941,26H32v2h.941a8.956,8.956,0,0,1-1.916,4.611l-.661-.661L28.95,33.364l.661.661a8.958,8.958,0,0,1-11.222,0Z"/><path fill="url(#b)" d="M27.229,22.512c-1.031.332-4.467,1.484-5.35,2.366a3,3,0,0,0,4.242,4.244h0c.883-.884,2.034-4.319,2.366-5.35a1,1,0,0,0-1.259-1.259Zm-2.522,5.2a1.025,1.025,0,0,1-1.414,0,1,1,0,0,1,0-1.414,12.072,12.072,0,0,1,2.618-1.2A12.072,12.072,0,0,1,24.707,27.708Z"/></svg>